# AST/ASF file generated using VICON BodyLanguage
# -----------------------------------------------
:version 1.10
:name VICON
:units
  mass 1.0
  length 0.45
  angle deg
:documentation
   .ast/.asf automatically generated from VICON data using
   VICON BodyBuilder and BodyLanguage model FoxedUp or BRILLIANT.MOD
:root
   order TX TY TZ RX RY RZ
   axis XYZ
   position 0 0 0  
   orientation 0 0 0 
:bonedata
  begin
     id 1 
     name lhipjoint
     direction 0.528046 -0.759594 0.379717 
     length 2.39752 
     axis 0 0 0  XYZ
  end
  begin
     id 2 
     name lfemur
     direction 0.34202 -0.939693 0  
     length 7.31175  
     axis 0 0 20  XYZ
    dof rx ry rz
    limits (-160.0 20.0)
           (-70.0 70.0)
           (-60.0 70.0)
  end
  begin
     id 3 
     name ltibia
     direction 0.34202 -0.939693 0   
     length 7.52482   
     axis 0 0 20   XYZ
    dof rx
    limits (-10.0 170.0)
  end
  begin
     id 4 
     name lfoot
     direction 0.0675379 -0.185559 0.980309   
     length 2.00961   
     axis -90 7.62852e-016 20   XYZ
    dof rx rz
    limits (-45.0 90.0)
           (-70.0 20.0)
  end
  begin
     id 5 
     name ltoes
     direction 1.5352e-011 -4.22286e-011 1   
     length 1.01383   
     axis -90 7.62852e-016 20   XYZ
    dof rx
    limits (-90.0 20.0)
  end
  begin
     id 6 
     name rhipjoint
     direction -0.510274 -0.769251 0.384544   
     length 2.36742  
     axis 0 0 0  XYZ 
  end
  begin
     id 7 
     name rfemur
     direction -0.34202 -0.939693 0   
     length 7.45325   
     axis 0 0 -20   XYZ
    dof rx ry rz
    limits (-160.0 20.0)
           (-70.0 70.0)
           (-70.0 60.0)
  end
  begin
     id 8 
     name rtibia
     direction -0.34202 -0.939693 0   
     length 7.49587   
     axis 0 0 -20   XYZ
    dof rx
    limits (-10.0 170.0)
 end
 begin
     id 9 
     name rfoot
     direction -0.106475 -0.292536 0.950308   
     length 2.20898  
     axis -90 -7.62852e-016 -20   XYZ
    dof rx rz
    limits (-45.0 90.0)
           (-20.0 70.0)
  end
  begin
     id 10 
     name rtoes
     direction -1.53597e-011 -4.22023e-011 1   
     length 1.10065   
     axis -90 -7.62852e-016 -20   XYZ
    dof rx
    limits (-90.0 20.0)
  end
  begin
     id 11 
     name lowerback
     direction 0.0260024 0.998026 -0.0571652   
     length 2.11214   
     axis 0 0 0   XYZ
    dof rx ry rz
    limits (-20.0 45.0)
           (-30.0 30.0)
           (-30.0 30.0)
  end
  begin
     id 12 
     name upperback
     direction 0.0216202 0.999542 -0.0211766   
     length 2.11689   
     axis 0 0 0   XYZ
    dof rx ry rz
    limits (-20.0 45.0)
           (-30.0 30.0)
           (-30.0 30.0)
  end
  begin
     id 13 
     name thorax
     direction 0.00883312 0.999944 0.00589057   
     length 2.11821   
     axis 0 0 0   XYZ
    dof rx ry rz
    limits (-20.0 45.0)
           (-30.0 30.0)
           (-30.0 30.0)
  end
  begin
     id 14 
     name lowerneck
     direction -0.059386 0.994433 0.0870401   
     length 1.81176   
     axis 0 0 0   XYZ
    dof rx ry rz
    limits (-20.0 45.0)
           (-30.0 30.0)
           (-30.0 30.0)
  end
  begin
     id 15 
     name upperneck
     direction 0.0506457 0.97328 -0.223967   
     length 1.82382   
     axis 0 0 0   XYZ
    dof rx ry rz
    limits (-20.0 45.0)
           (-30.0 30.0)
           (-30.0 30.0)
  end
  begin
     id 16
     name head
     direction 0.0205902 0.996147 -0.0852487  
     length 1.84805  
     axis 0 0 0   XYZ
    dof rx ry rz
    limits (-20.0 45.0)
           (-30.0 30.0)
           (-30.0 30.0)
  end
  begin
     id 17 
     name lclavicle
     direction 0.949493 0.303881 -0.0782325  
     length 3.60584  
     axis 0 0 0   XYZ
    dof ry rz
    limits (-20.0 10.0)
           (0.0 20.0)
  end
  begin
     id 18 
     name lhumerus
     direction 1 -4.48965e-011 1.48782e-027   
     length 4.95681   
     axis 180 -30 -90   XYZ
    dof rx ry rz
    limits (-60.0 90.0)
           (-90.0 90.0)
           (-90.0 90.0)
  end
  begin
     id 19
     name lradius
     direction 1 -4.48952e-011 2.06528e-027   
     length 3.40915   
     axis 180 -30 -90   XYZ
    dof rx
    limits (-10.0 170.0)
  end
  begin
     id 20
     name lwrist
     direction 1 -4.48964e-011 1.28021e-027   
     length 1.70457   
     axis -1.61767e-015 90 90   XYZ
    dof ry
    limits (-180.0 0.0)
 end
  begin
     id 21 
     name lhand
     direction 1 -4.49094e-011 2.54887e-027   
     length 0.616403   
     axis -1.63363e-015 90 90   XYZ
    dof rx rz
    limits (-90.0 90.0)
           (-45.0 45.0)
  end
  begin
     id 22 
     name lfingers
     direction 1 -4.49002e-011 5.11407e-027   
     length 0.49696   
     axis -3.26723e-015 90 90   XYZ
    dof rx
    limits (0.0 90.0)
  end
  begin
     id 23
     name lthumb
     direction 0.707107 -6.34998e-011 0.707107   
     length 0.713539   
     axis -90 45 -2.25915e-014   XYZ
    dof rx rz
    limits (-45.0 45.0)
           (-45.0 45.0)
  end
  begin
     id 24 
     name rclavicle
     direction -0.937751 0.334612 -0.0930482   
     length 3.46287  
     axis 0 0 0   XYZ 
    dof ry rz
    limits (-10.0 20.0)
           (-20.0 0.0)
  end
  begin
     id 25 
     name rhumerus
     direction -1 -4.48962e-011 3.59972e-027  
     length 5.352   
     axis 180 30 90   XYZ
    dof rx ry rz
    limits (-90.0 60.0)
           (-90.0 90.0)
           (-90.0 90.0)
  end
  begin
     id 26 
     name rradius
     direction -1 -4.48987e-011 -3.76925e-027   
     length 3.43721   
     axis 180 30 90   XYZ
    dof rx
    limits (-10.0 170.0)
  end
  begin
     id 27 
     name rwrist
     direction -1 -4.48943e-011 1.28112e-027   
     length 1.7186   
     axis -1.61767e-015 -90 -90   XYZ
    dof ry
    limits (-180.0 0.0)
  end
  begin
     id 28
     name rhand
     direction -1 -4.49027e-011 2.55483e-027   
     length 0.72009   
     axis -1.63363e-015 -90 -90   XYZ
    dof rx rz
    limits (-90.0 90.0)
           (-45.0 45.0)
  end
  begin
     id 29
     name rfingers
     direction -1 -4.48827e-011 5.14506e-027   
     length 0.580555   
     axis -3.26723e-015 -90 -90   XYZ
    dof rx
    limits (0.0 90.0)
  end
  begin
     id 30
     name rthumb
     direction -0.707107 -6.34936e-011 0.707107   
     length 0.833564   
     axis -90 -45 2.25915e-014   XYZ
    dof rx rz
    limits (-45.0 45.0)
           (-45.0 45.0)
  end
:hierarchy
  begin
    root lhipjoint rhipjoint lowerback
    lhipjoint lfemur
    lfemur ltibia
    ltibia lfoot
    lfoot ltoes
    rhipjoint rfemur
    rfemur rtibia
    rtibia rfoot
    rfoot rtoes
    lowerback upperback
    upperback thorax
    thorax lowerneck lclavicle rclavicle
    lowerneck upperneck
    upperneck head
    lclavicle lhumerus
    lhumerus lradius
    lradius lwrist
    lwrist lhand lthumb
    lhand lfingers
    rclavicle rhumerus
    rhumerus rradius
    rradius rwrist
    rwrist rhand rthumb
    rhand rfingers
  end

#!OML:ASF H:\Terrain\Patient Classification 1\Terrain2\Thursday\justin.ASF
:FULLY-SPECIFIED
:DEGREES
1
root -10.9996 17.0602 -10.5758 -77.9259 77.132 -76.1529
lowerback 7.39686 1.93937 11.5696
upperback 4.22875 3.58116 4.30478
thorax 0.707899 2.06414 -2.18821
lowerneck -15.1268 -2.02049 -9.17739
upperneck 36.3022 1.11549 0.97475
head 15.2652 -0.18121 2.34996
rclavicle 5.48646e-014 -1.78906e-015
rhumerus -31.8611 -9.88425 -77.7084
rradius 24.1071
rwrist -5.26977
rhand -18.8675 12.1566
rfingers 7.12502
rthumb 7.43308 -17.6928
lclavicle 5.48646e-014 -1.78906e-015
lhumerus -46.4557 29.7884 70.5465
lradius 19.9627
lwrist -7.77923
lhand -10.9744 22.29
lfingers 7.12502
lthumb 15.0452 51.7233
rfemur 6.08005 -5.04179 35.0404
rtibia 18.9687
rfoot -20.3627 -3.70767
rtoes 11.4642
lfemur -29.9933 1.88369 -3.94873
ltibia 61.1018
lfoot -11.4948 -5.33228
ltoes 4.45058
2
root -10.9558 17.0808 -10.5478 -77.6347 78.3035 -76.3213
lowerback 7.06597 2.02222 10.0825
upperback 4.00467 3.53646 4.01659
thorax 0.566006 1.99211 -1.67214
lowerneck -14.8368 -1.99068 -8.7133
upperneck 36.2252 1.12049 0.60812
head 15.1619 -0.157884 2.1117
rclavicle 1.88348e-014 3.69739e-014
rhumerus -32.1186 -10.3774 -77.4896
rradius 23.8909
rwrist -4.69126
rhand -18.743 12.3384
rfingers 7.12502
rthumb 7.55326 -17.5067
lclavicle 1.88348e-014 3.69739e-014
lhumerus -46.8637 29.8837 69.9755
lradius 19.8102
lwrist -8.03686
lhand -10.9499 22.1848
lfingers 7.12502
lthumb 15.0687 51.6164
rfemur 5.59065 -4.82587 34.0117
rtibia 19.2433
rfoot -20.3253 -3.9353
rtoes 11.9602
lfemur -30.6619 1.53183 -5.30946
ltibia 59.6821
lfoot -11.4288 -4.83456
ltoes 5.23014
3
root -10.9149 17.0791 -10.5472 -78.7566 78.1637 -77.6066
lowerback 6.98828 1.91253 10.4255
upperback 4.00219 3.39864 3.9155
thorax 0.622105 1.9321 -1.95267
lowerneck -14.4997 -1.83434 -7.37383
upperneck 35.8727 1.15965 -0.204826
head 14.9116 -0.0616861 1.5342
rclavicle -2.19657e-014 2.127e-014
rhumerus -31.8584 -11.5304 -77.2234
rradius 23.2815
rwrist -3.41555
rhand -18.4672 12.6708
rfingers 7.12502
rthumb 7.81946 -17.1646
lclavicle -2.19657e-014 2.127e-014
lhumerus -46.8537 29.9047 69.6218
lradius 19.6696
lwrist -7.91067
lhand -11.1264 22.3735
lfingers 7.12502
lthumb 14.8987 51.8178
rfemur 5.57567 -4.9212 34.2483
rtibia 19.1536
rfoot -20.2424 -3.82172
rtoes 12.6571
lfemur -31.1554 1.57472 -5.2176
ltibia 58.4526
lfoot -11.4225 -4.61114
ltoes 5.11334
4
root -10.8727 17.0793 -10.5409 -79.3323 78.5603 -78.3272
lowerback 6.90937 1.85588 9.99199
upperback 3.98659 3.28277 3.87235
thorax 0.611331 1.86434 -1.75317
lowerneck -14.6309 -1.82724 -7.575
upperneck 35.9833 1.21381 -0.0879702
head 14.9926 -0.0533306 1.62966
rclavicle 1.18774e-014 1.0138e-014
rhumerus -31.7014 -11.8129 -76.9801
rradius 22.9529
rwrist -3.21815
rhand -18.7239 12.7011
rfingers 7.12502
rthumb 7.57165 -17.1434
lclavicle 1.18774e-014 1.0138e-014
lhumerus -47.0441 30.2429 69.2828
lradius 19.5021
lwrist -8.25347
lhand -11.2763 22.5403
lfingers 7.12502
lthumb 14.7543 51.9952
rfemur 5.66016 -4.86553 33.9215
rtibia 18.935
rfoot -20.3504 -4.07617
rtoes 12.2455
lfemur -31.6066 1.68739 -5.79194
ltibia 57.1567
lfoot -11.5957 -4.37656
ltoes 2.7343
5
root -10.8278 17.0787 -10.5363 -80.6184 78.7163 -79.6742
lowerback 6.97155 1.78862 9.81915
upperback 3.9223 3.19813 3.93488
thorax 0.485663 1.81191 -1.59566
lowerneck -14.476 -1.84933 -7.67903
upperneck 35.9093 1.20257 -0.103414
head 14.9236 -0.0696429 1.63781
rclavicle -2.61899e-014 1.39149e-014
rhumerus -31.8679 -10.3145 -77.3169
rradius 23.2779
rwrist -4.91981
rhand -19.4563 12.1096
rfingers 7.12502
rthumb 6.86468 -17.7591
lclavicle -2.61899e-014 1.39149e-014
lhumerus -47.234 30.4194 68.9997
lradius 19.2107
lwrist -8.94652
lhand -11.3479 22.293
lfingers 7.12502
lthumb 14.6853 51.7529
rfemur 5.93566 -4.88651 33.8525
rtibia 18.555
rfoot -20.473 -4.40401
rtoes 11.3749
lfemur -31.9516 1.54588 -6.00892
ltibia 55.8771
lfoot -11.8322 -4.41966
ltoes 0.928489
6
root -10.7795 17.0811 -10.5343 -82.5597 78.5103 -81.5651
lowerback 7.11575 1.77625 10.2755
upperback 3.91883 3.23449 3.93094
thorax 0.43468 1.83739 -1.85675
lowerneck -15.1286 -2.14458 -9.32995
upperneck 36.5257 0.86784 1.35285
head 15.3855 -0.256303 2.50265
rclavicle 1.66979e-014 3.18055e-015
rhumerus -32.1288 -9.70687 -77.422
rradius 23.6256
rwrist -5.83116
rhand -19.4338 11.7397
rfingers 7.12502
rthumb 6.88643 -18.1283
lclavicle 1.66979e-014 3.18055e-015
lhumerus -47.0671 30.1939 68.8023
lradius 18.847
lwrist -9.73246
lhand -11.3248 21.9918
lfingers 7.12502
lthumb 14.7076 51.4501
rfemur 6.29841 -5.28499 34.0598
rtibia 18.321
rfoot -20.8807 -4.53955
rtoes 9.94011
lfemur -32.1459 1.34343 -5.7463
ltibia 54.5321
lfoot -11.7271 -4.78572
ltoes 2.80283
7
root -10.7336 17.0836 -10.5329 -83.7922 78.927 -82.8679
lowerback 7.14477 1.8586 10.0736
upperback 3.90713 3.32784 3.7766
thorax 0.412923 1.87805 -1.91345
lowerneck -15.133 -2.29988 -9.60352
upperneck 36.4539 0.658486 1.51298
head 15.3682 -0.358752 2.58103
rclavicle -2.78795e-014 6.75868e-015
rhumerus -32.2321 -10.5188 -76.9325
rradius 23.5379
rwrist -5.30356
rhand -19.0951 12.1155
rfingers 7.12502
rthumb 7.21337 -17.7416
lclavicle -2.78795e-014 6.75868e-015
lhumerus -47.1466 30.6641 68.0919
lradius 18.5721
lwrist -11.1365
lhand -11.3082 21.8664
lfingers 7.12502
lthumb 14.7235 51.3236
rfemur 6.51835 -5.70794 33.5665
rtibia 18.086
rfoot -21.0702 -4.48617
rtoes 9.41748
lfemur -32.4014 1.17252 -6.28454
ltibia 53.0613
lfoot -11.4417 -4.85372
ltoes 2.74169
8
root -10.6941 17.0816 -10.5358 -84.3024 79.075 -83.7525
lowerback 6.9972 1.95434 10.047
upperback 3.76392 3.43798 3.74605
thorax 0.35676 1.92315 -1.93402
lowerneck -14.9426 -2.31908 -9.61731
upperneck 36.2438 0.642835 1.39526
head 15.2249 -0.375646 2.52357
rclavicle 4.07509e-015 -8.34896e-015
rhumerus -32.2873 -10.9762 -76.6376
rradius 23.4511
rwrist -5.20904
rhand -19.2696 12.2685
rfingers 7.12502
rthumb 7.04486 -17.5942
lclavicle 4.07509e-015 -8.34896e-015
lhumerus -47.2728 31.0907 67.5899
lradius 18.4296
lwrist -12.1443
lhand -11.3872 22.0897
lfingers 7.12502
lthumb 14.6475 51.5524
rfemur 6.35337 -5.44073 33.5718
rtibia 17.8339
rfoot -20.8129 -4.92991
rtoes 9.21139
lfemur -32.9795 1.12889 -6.55257
ltibia 51.5205
lfoot -11.2258 -4.72229
ltoes -1.0325
9
root -10.6488 17.0774 -10.5393 -84.8083 78.7464 -84.6531
lowerback 6.82076 2.01328 10.4791
upperback 3.5894 3.53175 3.7957
thorax 0.307991 1.96749 -2.11933
lowerneck -14.7162 -2.42572 -9.42319
upperneck 36.0938 0.414727 1.30875
head 15.1139 -0.451796 2.40945
rclavicle -2.77802e-014 -1.86858e-014
rhumerus -32.5166 -10.9063 -76.6833
rradius 23.722
rwrist -5.77259
rhand -19.2115 12.0916
rfingers 7.12502
rthumb 7.10101 -17.7693
lclavicle -2.77802e-014 -1.86858e-014
lhumerus -47.0328 30.6684 67.8015
lradius 18.3427
lwrist -12.0476
lhand -11.5829 22.402
lfingers 7.12502
lthumb 14.4589 51.8782
rfemur 6.10866 -5.12786 34.099
rtibia 17.7643
rfoot -20.6926 -5.47748
rtoes 8.40281
lfemur -33.537 1.24835 -6.22615
ltibia 49.897
lfoot -11.0004 -5.09176
ltoes -1.41216
10
root -10.5915 17.0653 -10.5396 -86.1527 78.5886 -85.9157
lowerback 6.94675 1.94825 10.736
upperback 3.61751 3.48017 3.78103
thorax 0.27975 1.94687 -2.27704
lowerneck -14.6937 -2.46189 -9.231
upperneck 36.0098 0.27592 1.32624
head 15.0733 -0.481974 2.35733
rclavicle -1.88845e-015 2.24627e-014
rhumerus -32.653 -10.8778 -76.7706
rradius 23.9573
rwrist -6.01197
rhand -19.2149 12.0571
rfingers 7.12502
rthumb 7.09769 -17.8039
lclavicle -1.88845e-015 2.24627e-014
lhumerus -46.7954 30.6669 67.6562
lradius 18.1196
lwrist -12.3493
lhand -12.0253 22.3852
lfingers 7.12502
lthumb 14.0326 51.8915
rfemur 6.52254 -5.25992 34.2945
rtibia 17.5739
rfoot -20.727 -5.57799
rtoes 8.82714
lfemur -33.5001 1.2489 -6.10764
ltibia 48.2645
lfoot -10.8023 -5.6629
ltoes 2.56401
11
root -10.5345 17.0608 -10.5359 -87.3717 79.0692 -87.0976
lowerback 7.04518 1.97406 10.292
upperback 3.6312 3.49448 3.70484
thorax 0.216065 1.94429 -2.12014
lowerneck -14.5339 -2.53968 -9.23766
upperneck 35.7918 0.147803 1.2613
head 14.9418 -0.541256 2.30336
rclavicle -4.98453e-014 -3.08116e-014
rhumerus -32.6793 -10.9758 -76.4733
rradius 23.9581
rwrist -5.88611
rhand -19.2778 12.2793
rfingers 7.12502
rthumb 7.03704 -17.5837
lclavicle -4.98453e-014 -3.08116e-014
lhumerus -46.8026 31.3049 67.091
lradius 17.7966
lwrist -13.6281
lhand -12.4674 22.1961
lfingers 7.12502
lthumb 13.6066 51.7314
rfemur 7.0119 -5.13806 33.8613
rtibia 17.1171
rfoot -20.6493 -5.84857
rtoes 9.87927
lfemur -33.4483 1.14223 -6.77129
ltibia 46.6122
lfoot -10.8187 -5.6956
ltoes 2.53659
12
root -10.481 17.0571 -10.536 -88.4674 78.9278 -88.3007
lowerback 7.05241 1.94415 10.3276
upperback 3.59215 3.46885 3.85497
thorax 0.16043 1.92942 -1.9845
lowerneck -14.534 -2.55443 -9.2464
upperneck 35.7372 0.162689 1.15863
head 14.917 -0.548783 2.26298
rclavicle 1.08835e-014 1.98785e-014
rhumerus -32.5753 -10.7354 -76.2599
rradius 23.8962
rwrist -5.95877
rhand -19.6334 12.4548
rfingers 7.12502
rthumb 6.69369 -17.4194
lclavicle 1.08835e-014 1.98785e-014
lhumerus -46.7792 31.7072 66.8356
lradius 17.7823
lwrist -14.1113
lhand -12.2158 22.3701
lfingers 7.12502
lthumb 13.8491 51.889
rfemur 7.34508 -5.03621 34.0832
rtibia 16.5919
rfoot -20.584 -6.07039
rtoes 10.1752
lfemur -33.6015 1.12574 -6.71859
ltibia 44.9669
lfoot -10.6817 -5.70836
ltoes 1.61155
13
root -10.4252 17.0621 -10.5342 -89.0721 78.7347 -89.0094
lowerback 7.02029 1.84663 10.4007
upperback 3.63551 3.3394 3.88074
thorax 0.212669 1.87073 -1.98775
lowerneck -14.9964 -2.5556 -9.35023
upperneck 35.9061 0.158097 1.38465
head 15.1035 -0.546182 2.38006
rclavicle -2.04251e-014 -3.99557e-014
rhumerus -32.3628 -10.0411 -76.725
rradius 24.0427
rwrist -6.61678
rhand -19.9869 12.1499
rfingers 7.12502
rthumb 6.35242 -17.7348
lclavicle -2.04251e-014 -3.99557e-014
lhumerus -46.5032 31.8391 66.7177
lradius 17.9377
lwrist -13.9943
lhand -12.0052 22.7906
lfingers 7.12502
lthumb 14.052 52.2955
rfemur 7.6379 -5.03938 34.303
rtibia 16.1999
rfoot -20.6046 -6.0193
rtoes 10.55
lfemur -33.6731 1.04734 -6.50771
ltibia 43.2727
lfoot -10.3079 -5.80225
ltoes 5.45616
14
root -10.3707 17.0694 -10.5336 -89.7934 79.1003 -89.8129
lowerback 7.08335 1.82719 10.1904
upperback 3.63082 3.29765 3.66123
thorax 0.168598 1.84306 -2.10207
lowerneck -15.0947 -2.62123 -9.46113
upperneck 35.8418 0.028375 1.55074
head 15.1041 -0.596613 2.44535
rclavicle 2.92213e-014 1.47101e-014
rhumerus -32.3733 -9.7339 -77.0871
rradius 24.3491
rwrist -7.10492
rhand -19.34 11.9658
rfingers 7.12502
rthumb 6.97698 -17.8992
lclavicle 2.92213e-014 1.47101e-014
lhumerus -46.1544 31.6226 66.7562
lradius 18.0237
lwrist -14.0945
lhand -12.5843 22.9756
lfingers 7.12502
lthumb 13.4939 52.5184
rfemur 7.93654 -4.76525 33.9922
rtibia 15.7913
rfoot -20.5143 -6.30167
rtoes 11.0104
lfemur -33.6841 0.836691 -6.92221
ltibia 41.5972
lfoot -10.0454 -5.72037
ltoes 7.16793
15
root -10.3162 17.0639 -10.5396 -91.1102 79.5785 -91.2334
lowerback 7.16343 1.85828 9.87818
upperback 3.52816 3.32671 3.51386
thorax 0.00900045 1.84073 -2.09369
lowerneck -14.7814 -2.67927 -9.42776
upperneck 35.6808 -0.0599912 1.42423
head 14.962 -0.638575 2.36673
rclavicle -2.0773e-014 -2.82274e-014
rhumerus -32.5582 -10.0857 -76.8514
rradius 24.527
rwrist -7.03648
rhand -19.221 11.9582
rfingers 7.12502
rthumb 7.09178 -17.903
lclavicle -2.0773e-014 -2.82274e-014
lhumerus -45.6927 30.822 67.4152
lradius 18.1592
lwrist -13.5113
lhand -12.9611 22.9141
lfingers 7.12502
lthumb 13.1307 52.4807
rfemur 8.1794 -4.86411 33.4926
rtibia 15.3917
rfoot -20.4013 -6.72333
rtoes 9.44401
lfemur -33.7643 0.607832 -7.54145
ltibia 39.9482
lfoot -9.82563 -5.55721
ltoes 5.49279
